<mxfile host="app.diagrams.net" modified="2021-08-16T15:53:32.631Z" agent="5.0 (Windows NT 10.0; Win64; x64) AppleWebKit/537.36 (KHTML, like Gecko) Chrome/90.0.4430.93 Safari/537.36" etag="_2TEnWKDWFNc8c-prg1b" version="14.9.3" type="github">
  <diagram id="7yaKelv0nMBXgAobBAqF" name="Page-1">
    <mxGraphModel dx="781" dy="477" grid="1" gridSize="10" guides="1" tooltips="1" connect="1" arrows="1" fold="1" page="1" pageScale="1" pageWidth="827" pageHeight="1169" math="0" shadow="0">
      <root>
        <mxCell id="0" />
        <mxCell id="1" parent="0" />
        <mxCell id="MaeOOqmYXW2F6xx3LqEA-7" value="" style="rounded=0;whiteSpace=wrap;html=1;fillColor=#f5f5f5;strokeColor=#666666;fontColor=#333333;" vertex="1" parent="1">
          <mxGeometry x="420" y="120" width="300" height="360" as="geometry" />
        </mxCell>
        <mxCell id="MaeOOqmYXW2F6xx3LqEA-8" value="&lt;font style=&quot;font-size: 16px&quot;&gt;Looper&lt;/font&gt;" style="text;html=1;strokeColor=none;fillColor=none;align=center;verticalAlign=middle;whiteSpace=wrap;rounded=0;" vertex="1" parent="1">
          <mxGeometry x="440" y="140" width="40" height="20" as="geometry" />
        </mxCell>
        <mxCell id="MaeOOqmYXW2F6xx3LqEA-9" value="" style="rounded=0;whiteSpace=wrap;html=1;fillColor=#fff2cc;strokeColor=#d6b656;" vertex="1" parent="1">
          <mxGeometry x="460" y="170" width="160" height="200" as="geometry" />
        </mxCell>
        <mxCell id="MaeOOqmYXW2F6xx3LqEA-10" value="&lt;font style=&quot;font-size: 16px&quot;&gt;MessageQueue&lt;/font&gt;" style="text;html=1;strokeColor=none;fillColor=none;align=center;verticalAlign=middle;whiteSpace=wrap;rounded=0;" vertex="1" parent="1">
          <mxGeometry x="500" y="180" width="40" height="20" as="geometry" />
        </mxCell>
        <mxCell id="MaeOOqmYXW2F6xx3LqEA-16" value="Messgse 1" style="rounded=1;whiteSpace=wrap;html=1;fillColor=#d5e8d4;strokeColor=#82b366;" vertex="1" parent="1">
          <mxGeometry x="480" y="210" width="120" height="40" as="geometry" />
        </mxCell>
        <mxCell id="MaeOOqmYXW2F6xx3LqEA-17" value="Messgse 2" style="rounded=1;whiteSpace=wrap;html=1;fillColor=#d5e8d4;strokeColor=#82b366;" vertex="1" parent="1">
          <mxGeometry x="480" y="260" width="120" height="40" as="geometry" />
        </mxCell>
        <mxCell id="MaeOOqmYXW2F6xx3LqEA-18" value="Messgse n" style="rounded=1;whiteSpace=wrap;html=1;fillColor=#d5e8d4;strokeColor=#82b366;" vertex="1" parent="1">
          <mxGeometry x="480" y="320" width="120" height="40" as="geometry" />
        </mxCell>
        <mxCell id="MaeOOqmYXW2F6xx3LqEA-20" value="" style="rounded=0;whiteSpace=wrap;html=1;fillColor=#f5f5f5;strokeColor=#666666;fontColor=#333333;" vertex="1" parent="1">
          <mxGeometry x="110" y="120" width="170" height="360" as="geometry" />
        </mxCell>
        <mxCell id="MaeOOqmYXW2F6xx3LqEA-21" value="&lt;font style=&quot;font-size: 16px&quot;&gt;Handler&lt;/font&gt;" style="text;html=1;strokeColor=none;fillColor=none;align=center;verticalAlign=middle;whiteSpace=wrap;rounded=0;" vertex="1" parent="1">
          <mxGeometry x="130" y="140" width="40" height="20" as="geometry" />
        </mxCell>
        <mxCell id="MaeOOqmYXW2F6xx3LqEA-22" value="sendMessage()" style="rounded=1;whiteSpace=wrap;html=1;fillColor=#d5e8d4;strokeColor=#82b366;" vertex="1" parent="1">
          <mxGeometry x="130" y="200" width="120" height="40" as="geometry" />
        </mxCell>
        <mxCell id="MaeOOqmYXW2F6xx3LqEA-23" value="handleMessage()" style="rounded=1;whiteSpace=wrap;html=1;fillColor=#d5e8d4;strokeColor=#82b366;" vertex="1" parent="1">
          <mxGeometry x="135" y="420" width="120" height="40" as="geometry" />
        </mxCell>
        <mxCell id="MaeOOqmYXW2F6xx3LqEA-24" value="..." style="text;html=1;align=center;verticalAlign=middle;resizable=0;points=[];autosize=1;strokeColor=none;" vertex="1" parent="1">
          <mxGeometry x="525" y="300" width="30" height="20" as="geometry" />
        </mxCell>
        <mxCell id="MaeOOqmYXW2F6xx3LqEA-25" value="Message" style="rounded=1;whiteSpace=wrap;html=1;fillColor=#d5e8d4;strokeColor=#82b366;" vertex="1" parent="1">
          <mxGeometry x="480" y="420" width="120" height="40" as="geometry" />
        </mxCell>
        <mxCell id="MaeOOqmYXW2F6xx3LqEA-26" value="" style="endArrow=classic;html=1;exitX=1;exitY=0.25;exitDx=0;exitDy=0;entryX=1;entryY=0.5;entryDx=0;entryDy=0;edgeStyle=orthogonalEdgeStyle;" edge="1" parent="1" source="MaeOOqmYXW2F6xx3LqEA-9" target="MaeOOqmYXW2F6xx3LqEA-25">
          <mxGeometry width="50" height="50" relative="1" as="geometry">
            <mxPoint x="380" y="270" as="sourcePoint" />
            <mxPoint x="430" y="220" as="targetPoint" />
            <Array as="points">
              <mxPoint x="650" y="220" />
              <mxPoint x="650" y="440" />
            </Array>
          </mxGeometry>
        </mxCell>
        <mxCell id="MaeOOqmYXW2F6xx3LqEA-27" value="loop()" style="text;html=1;align=center;verticalAlign=middle;resizable=0;points=[];autosize=1;strokeColor=none;" vertex="1" parent="1">
          <mxGeometry x="650" y="310" width="50" height="20" as="geometry" />
        </mxCell>
        <mxCell id="MaeOOqmYXW2F6xx3LqEA-28" value="" style="endArrow=classic;html=1;exitX=1;exitY=0.5;exitDx=0;exitDy=0;entryX=0;entryY=0.25;entryDx=0;entryDy=0;" edge="1" parent="1" source="MaeOOqmYXW2F6xx3LqEA-22" target="MaeOOqmYXW2F6xx3LqEA-9">
          <mxGeometry width="50" height="50" relative="1" as="geometry">
            <mxPoint x="380" y="270" as="sourcePoint" />
            <mxPoint x="430" y="220" as="targetPoint" />
          </mxGeometry>
        </mxCell>
        <mxCell id="MaeOOqmYXW2F6xx3LqEA-29" value="enqueueMessage()" style="text;html=1;align=center;verticalAlign=middle;resizable=0;points=[];autosize=1;strokeColor=none;" vertex="1" parent="1">
          <mxGeometry x="290" y="190" width="120" height="20" as="geometry" />
        </mxCell>
        <mxCell id="MaeOOqmYXW2F6xx3LqEA-30" value="" style="endArrow=classic;html=1;exitX=0;exitY=0.5;exitDx=0;exitDy=0;entryX=1;entryY=0.5;entryDx=0;entryDy=0;" edge="1" parent="1" source="MaeOOqmYXW2F6xx3LqEA-25" target="MaeOOqmYXW2F6xx3LqEA-23">
          <mxGeometry width="50" height="50" relative="1" as="geometry">
            <mxPoint x="380" y="270" as="sourcePoint" />
            <mxPoint x="430" y="220" as="targetPoint" />
          </mxGeometry>
        </mxCell>
        <mxCell id="MaeOOqmYXW2F6xx3LqEA-31" value="dispatchMessage()" style="text;html=1;align=center;verticalAlign=middle;resizable=0;points=[];autosize=1;strokeColor=none;" vertex="1" parent="1">
          <mxGeometry x="290" y="410" width="120" height="20" as="geometry" />
        </mxCell>
      </root>
    </mxGraphModel>
  </diagram>
</mxfile>
